# xmcd
#
# Track frame offsets: 
#        150
#        10466
#        21198
#        29034
#        38742
#        50195
#        62854
#        73458
#        82844
#        94675
#        106163
#        115547
#        124929
#        135114
#        144082
#        154662
#        162366
#        171805
#        184430
#        193252
#        203576
#        214359
#        223613
#        232404
#        246062
#        252923
#        264637
#        277688
#        292891
#
# Disc length: 4027 seconds
#
# Revision: 0
# Processed by: cddbd v1.5.2PL0 Copyright (c) Steve Scherf et al.
# Submitted via: ExactAudioCopy v0.99pb4
#
DISCID=ae0fb91d
DTITLE=Mitchell, Willie Combo and The Four Kings - Original Memphis Rhyt
DTITLE=hm and Blues
DYEAR=2010
DGENRE=Blues
TTITLE0=Tell It To Me Baby
TTITLE1=Hokin' (Take 2)
TTITLE2=Rag Mop (Take 2)
TTITLE3=I Want You For Myself (Take 1)
TTITLE4=One Mint Julip
TTITLE5=I've Got A Right To Cry
TTITLE6=Walking At Your Will
TTITLE7=The Crawl
TTITLE8=You Make Me Feel So Fine (A Capella)
TTITLE9=Stroll
TTITLE10=I Want You For Myself (Take 2)
TTITLE11=Bongo Beat
TTITLE12=Yvonne
TTITLE13=Tell It To Me Baby (A Capella)
TTITLE14=I Like It
TTITLE15=Rag Mop (Take 1)
TTITLE16=Thirty Five Thirty
TTITLE17=Walking Alone
TTITLE18=Do I Love You (A Capella)
TTITLE19=Willie's House Party
TTITLE20=Walking At Your Will (Take 2)
TTITLE21=I Want You For Myself (Take 4)
TTITLE22=She Went Away (A Capella)
TTITLE23=Tanya
TTITLE24=Come Back To Me
TTITLE25=Star Of Love
TTITLE26=Eternity
TTITLE27=Walking At Your Will (A Capella)
TTITLE28=I Want You For Myself (Take 3)
EXTD=
EXTT0=
EXTT1=
EXTT2=
EXTT3=
EXTT4=
EXTT5=
EXTT6=
EXTT7=
EXTT8=
EXTT9=
EXTT10=
EXTT11=
EXTT12=
EXTT13=
EXTT14=
EXTT15=
EXTT16=
EXTT17=
EXTT18=
EXTT19=
EXTT20=
EXTT21=
EXTT22=
EXTT23=
EXTT24=
EXTT25=
EXTT26=
EXTT27=
EXTT28=
PLAYORDER=
